<svg xmlns="http://www.w3.org/2000/svg" xmlns:xlink="http://www.w3.org/1999/xlink" contentStyleType="text/css" data-diagram-type="DESCRIPTION" height="907px" preserveAspectRatio="none" style="width:1204px;height:907px;background:#FFFFFF;" version="1.1" viewBox="0 0 1204 907" width="1204px" zoomAndPan="magnify"><title>Advanced File Manager - Component Diagram</title><defs/><g><g class="title" data-source-line="3"><text fill="#000000" font-family="sans-serif" font-size="14" font-weight="bold" lengthAdjust="spacing" textLength="362.332" x="413.834" y="22.9951">Advanced File Manager - Component Diagram</text></g><!--cluster UI--><g class="cluster" data-entity="UI" data-source-line="6" data-uid="ent0002" id="cluster_UI"><rect fill="none" height="294" rx="2.5" ry="2.5" style="stroke:#181818;stroke-width:1;" width="724.5" x="7" y="44.2969"/><rect fill="none" height="10" style="stroke:#181818;stroke-width:1;" width="15" x="711.5" y="49.2969"/><rect fill="none" height="2" style="stroke:#181818;stroke-width:1;" width="4" x="709.5" y="51.2969"/><rect fill="none" height="2" style="stroke:#181818;stroke-width:1;" width="4" x="709.5" y="55.2969"/><text fill="#000000" font-family="sans-serif" font-size="14" font-weight="bold" lengthAdjust="spacing" textLength="112.5742" x="312.9629" y="70.292">User Interface</text></g><!--cluster Backend--><g class="cluster" data-entity="Backend" data-source-line="14" data-uid="ent0008" id="cluster_Backend"><rect fill="none" height="213" rx="2.5" ry="2.5" style="stroke:#181818;stroke-width:1;" width="728" x="470" y="378.2969"/><rect fill="none" height="10" style="stroke:#181818;stroke-width:1;" width="15" x="1178" y="383.2969"/><rect fill="none" height="2" style="stroke:#181818;stroke-width:1;" width="4" x="1176" y="385.2969"/><rect fill="none" height="2" style="stroke:#181818;stroke-width:1;" width="4" x="1176" y="389.2969"/><text fill="#000000" font-family="sans-serif" font-size="14" font-weight="bold" lengthAdjust="spacing" textLength="163.6523" x="752.1738" y="404.292">Backend Logic (PHP)</text></g><!--cluster DB--><g class="cluster" data-entity="DB" data-source-line="21" data-uid="ent0013" id="cluster_DB"><rect fill="none" height="213" rx="2.5" ry="2.5" style="stroke:#181818;stroke-width:1;" width="269" x="921.5" y="685.2969"/><rect fill="none" height="10" style="stroke:#181818;stroke-width:1;" width="15" x="1170.5" y="690.2969"/><rect fill="none" height="2" style="stroke:#181818;stroke-width:1;" width="4" x="1168.5" y="692.2969"/><rect fill="none" height="2" style="stroke:#181818;stroke-width:1;" width="4" x="1168.5" y="696.2969"/><text fill="#000000" font-family="sans-serif" font-size="14" font-weight="bold" lengthAdjust="spacing" textLength="74.5049" x="1018.7476" y="711.292">Database</text></g><!--entity Search/Filter UI--><g class="entity" data-entity="Search/Filter UI" data-source-line="7" data-uid="ent0003" id="entity_Search/Filter UI"><rect fill="#F1F1F1" height="46.2969" rx="2.5" ry="2.5" style="stroke:#181818;stroke-width:0.5;" width="147.6387" x="57" y="249.2969"/><rect fill="#F1F1F1" height="10" style="stroke:#181818;stroke-width:0.5;" width="15" x="184.6387" y="254.2969"/><rect fill="#F1F1F1" height="2" style="stroke:#181818;stroke-width:0.5;" width="4" x="182.6387" y="256.2969"/><rect fill="#F1F1F1" height="2" style="stroke:#181818;stroke-width:0.5;" width="4" x="182.6387" y="260.2969"/><text fill="#000000" font-family="sans-serif" font-size="14" lengthAdjust="spacing" textLength="107.6387" x="72" y="282.292">Search/Filter UI</text></g><!--entity Sorting UI--><g class="entity" data-entity="Sorting UI" data-source-line="8" data-uid="ent0004" id="entity_Sorting UI"><rect fill="#F1F1F1" height="46.2969" rx="2.5" ry="2.5" style="stroke:#181818;stroke-width:0.5;" width="109.1729" x="76.5" y="168.2969"/><rect fill="#F1F1F1" height="10" style="stroke:#181818;stroke-width:0.5;" width="15" x="165.6729" y="173.2969"/><rect fill="#F1F1F1" height="2" style="stroke:#181818;stroke-width:0.5;" width="4" x="163.6729" y="175.2969"/><rect fill="#F1F1F1" height="2" style="stroke:#181818;stroke-width:0.5;" width="4" x="163.6729" y="179.2969"/><text fill="#000000" font-family="sans-serif" font-size="14" lengthAdjust="spacing" textLength="69.1729" x="91.5" y="201.292">Sorting UI</text></g><!--entity Drag & Drop Upload UI--><g class="entity" data-entity="Drag &amp; Drop Upload UI" data-source-line="9" data-uid="ent0005" id="entity_Drag &amp; Drop Upload UI"><rect fill="#F1F1F1" height="46.2969" rx="2.5" ry="2.5" style="stroke:#181818;stroke-width:0.5;" width="200.1387" x="31" y="87.2969"/><rect fill="#F1F1F1" height="10" style="stroke:#181818;stroke-width:0.5;" width="15" x="211.1387" y="92.2969"/><rect fill="#F1F1F1" height="2" style="stroke:#181818;stroke-width:0.5;" width="4" x="209.1387" y="94.2969"/><rect fill="#F1F1F1" height="2" style="stroke:#181818;stroke-width:0.5;" width="4" x="209.1387" y="98.2969"/><text fill="#000000" font-family="sans-serif" font-size="14" lengthAdjust="spacing" textLength="160.1387" x="46" y="120.292">Drag &amp; Drop Upload UI</text></g><!--entity Upload Progress Bar--><g class="entity" data-entity="Upload Progress Bar" data-source-line="10" data-uid="ent0006" id="entity_Upload Progress Bar"><rect fill="#F1F1F1" height="46.2969" rx="2.5" ry="2.5" style="stroke:#181818;stroke-width:0.5;" width="182.502" x="503" y="249.2969"/><rect fill="#F1F1F1" height="10" style="stroke:#181818;stroke-width:0.5;" width="15" x="665.502" y="254.2969"/><rect fill="#F1F1F1" height="2" style="stroke:#181818;stroke-width:0.5;" width="4" x="663.502" y="256.2969"/><rect fill="#F1F1F1" height="2" style="stroke:#181818;stroke-width:0.5;" width="4" x="663.502" y="260.2969"/><text fill="#000000" font-family="sans-serif" font-size="14" lengthAdjust="spacing" textLength="142.502" x="518" y="282.292">Upload Progress Bar</text></g><!--entity Download Counter Display--><g class="entity" data-entity="Download Counter Display" data-source-line="11" data-uid="ent0007" id="entity_Download Counter Display"><rect fill="#F1F1F1" height="46.2969" rx="2.5" ry="2.5" style="stroke:#181818;stroke-width:0.5;" width="226.04" x="481.5" y="168.2969"/><rect fill="#F1F1F1" height="10" style="stroke:#181818;stroke-width:0.5;" width="15" x="687.54" y="173.2969"/><rect fill="#F1F1F1" height="2" style="stroke:#181818;stroke-width:0.5;" width="4" x="685.54" y="175.2969"/><rect fill="#F1F1F1" height="2" style="stroke:#181818;stroke-width:0.5;" width="4" x="685.54" y="179.2969"/><text fill="#000000" font-family="sans-serif" font-size="14" lengthAdjust="spacing" textLength="186.04" x="496.5" y="201.292">Download Counter Display</text></g><!--entity Search/Filter Processor--><g class="entity" data-entity="Search/Filter Processor" data-source-line="15" data-uid="ent0009" id="entity_Search/Filter Processor"><rect fill="#F1F1F1" height="46.2969" rx="2.5" ry="2.5" style="stroke:#181818;stroke-width:0.5;" width="201.2461" x="494" y="502.2969"/><rect fill="#F1F1F1" height="10" style="stroke:#181818;stroke-width:0.5;" width="15" x="675.2461" y="507.2969"/><rect fill="#F1F1F1" height="2" style="stroke:#181818;stroke-width:0.5;" width="4" x="673.2461" y="509.2969"/><rect fill="#F1F1F1" height="2" style="stroke:#181818;stroke-width:0.5;" width="4" x="673.2461" y="513.2969"/><text fill="#000000" font-family="sans-serif" font-size="14" lengthAdjust="spacing" textLength="161.2461" x="509" y="535.292">Search/Filter Processor</text></g><!--entity Sorting Processor--><g class="entity" data-entity="Sorting Processor" data-source-line="16" data-uid="ent0010" id="entity_Sorting Processor"><rect fill="#F1F1F1" height="46.2969" rx="2.5" ry="2.5" style="stroke:#181818;stroke-width:0.5;" width="162.7803" x="513" y="421.2969"/><rect fill="#F1F1F1" height="10" style="stroke:#181818;stroke-width:0.5;" width="15" x="655.7803" y="426.2969"/><rect fill="#F1F1F1" height="2" style="stroke:#181818;stroke-width:0.5;" width="4" x="653.7803" y="428.2969"/><rect fill="#F1F1F1" height="2" style="stroke:#181818;stroke-width:0.5;" width="4" x="653.7803" y="432.2969"/><text fill="#000000" font-family="sans-serif" font-size="14" lengthAdjust="spacing" textLength="122.7803" x="528" y="454.292">Sorting Processor</text></g><!--entity File Upload Handler--><g class="entity" data-entity="File Upload Handler" data-source-line="17" data-uid="ent0011" id="entity_File Upload Handler"><rect fill="#F1F1F1" height="46.2969" rx="2.5" ry="2.5" style="stroke:#181818;stroke-width:0.5;" width="177.5254" x="967" y="502.2969"/><rect fill="#F1F1F1" height="10" style="stroke:#181818;stroke-width:0.5;" width="15" x="1124.5254" y="507.2969"/><rect fill="#F1F1F1" height="2" style="stroke:#181818;stroke-width:0.5;" width="4" x="1122.5254" y="509.2969"/><rect fill="#F1F1F1" height="2" style="stroke:#181818;stroke-width:0.5;" width="4" x="1122.5254" y="513.2969"/><text fill="#000000" font-family="sans-serif" font-size="14" lengthAdjust="spacing" textLength="137.5254" x="982" y="535.292">File Upload Handler</text></g><!--entity Download Counter Manager--><g class="entity" data-entity="Download Counter Manager" data-source-line="18" data-uid="ent0012" id="entity_Download Counter Manager"><rect fill="#F1F1F1" height="46.2969" rx="2.5" ry="2.5" style="stroke:#181818;stroke-width:0.5;" width="235.8018" x="938" y="421.2969"/><rect fill="#F1F1F1" height="10" style="stroke:#181818;stroke-width:0.5;" width="15" x="1153.8018" y="426.2969"/><rect fill="#F1F1F1" height="2" style="stroke:#181818;stroke-width:0.5;" width="4" x="1151.8018" y="428.2969"/><rect fill="#F1F1F1" height="2" style="stroke:#181818;stroke-width:0.5;" width="4" x="1151.8018" y="432.2969"/><text fill="#000000" font-family="sans-serif" font-size="14" lengthAdjust="spacing" textLength="195.8018" x="953" y="454.292">Download Counter Manager</text></g><!--entity File Metadata Table--><g class="entity" data-entity="File Metadata Table" data-source-line="22" data-uid="ent0014" id="entity_File Metadata Table"><rect fill="#F1F1F1" height="46.2969" rx="2.5" ry="2.5" style="stroke:#181818;stroke-width:0.5;" width="178.1611" x="967" y="728.2969"/><rect fill="#F1F1F1" height="10" style="stroke:#181818;stroke-width:0.5;" width="15" x="1125.1611" y="733.2969"/><rect fill="#F1F1F1" height="2" style="stroke:#181818;stroke-width:0.5;" width="4" x="1123.1611" y="735.2969"/><rect fill="#F1F1F1" height="2" style="stroke:#181818;stroke-width:0.5;" width="4" x="1123.1611" y="739.2969"/><text fill="#000000" font-family="sans-serif" font-size="14" lengthAdjust="spacing" textLength="138.1611" x="982" y="761.292">File Metadata Table</text></g><!--entity Download Statistics Table--><g class="entity" data-entity="Download Statistics Table" data-source-line="23" data-uid="ent0015" id="entity_Download Statistics Table"><rect fill="#F1F1F1" height="46.2969" rx="2.5" ry="2.5" style="stroke:#181818;stroke-width:0.5;" width="221.0088" x="945.5" y="809.2969"/><rect fill="#F1F1F1" height="10" style="stroke:#181818;stroke-width:0.5;" width="15" x="1146.5088" y="814.2969"/><rect fill="#F1F1F1" height="2" style="stroke:#181818;stroke-width:0.5;" width="4" x="1144.5088" y="816.2969"/><rect fill="#F1F1F1" height="2" style="stroke:#181818;stroke-width:0.5;" width="4" x="1144.5088" y="820.2969"/><text fill="#000000" font-family="sans-serif" font-size="14" lengthAdjust="spacing" textLength="181.0088" x="960.5" y="842.292">Download Statistics Table</text></g><!--entity FS--><g class="entity" data-entity="FS" data-source-line="26" data-uid="ent0016" id="entity_FS"><rect fill="#F1F1F1" height="46.2969" rx="2.5" ry="2.5" style="stroke:#181818;stroke-width:0.5;" width="121.1016" x="995.5" y="615.2969"/><rect fill="#F1F1F1" height="10" style="stroke:#181818;stroke-width:0.5;" width="15" x="1096.6016" y="620.2969"/><rect fill="#F1F1F1" height="2" style="stroke:#181818;stroke-width:0.5;" width="4" x="1094.6016" y="622.2969"/><rect fill="#F1F1F1" height="2" style="stroke:#181818;stroke-width:0.5;" width="4" x="1094.6016" y="626.2969"/><text fill="#000000" font-family="sans-serif" font-size="14" lengthAdjust="spacing" textLength="81.1016" x="1010.5" y="648.292">File System</text></g><!--link UI to Backend--><g class="link" data-entity-1="UI" data-entity-2="Backend" data-source-line="29" data-uid="lnk17" id="link_UI_Backend"><path d="M199.3524,338.4113 C199.7886,338.4868 200.2262,338.5631 200.6653,338.64 C204.1779,339.2554 207.7825,339.9148 211.4685,340.6212 C226.2124,343.4466 242.2591,347.0234 258.9338,351.5431 C325.6325,369.6219 402.38,402.7869 446,463.2969 C459.17,481.5569 438.53,547.9369 454,564.2969 C456.6444,567.0944 459.4914,569.6196 462.5061,571.8954 C464.0135,573.0333 465.5628,574.1088 467.1497,575.1249 C467.9431,575.633 463.5777,573.0783 464.3893,573.5569" fill="none" id="UI-to-Backend" style="stroke:#181818;stroke-width:1;"/><polygon fill="#181818" points="469.5576,576.6048,463.8371,568.5875,465.2507,574.0649,459.7733,575.4785,469.5576,576.6048" style="stroke:#181818;stroke-width:1;"/><text fill="#000000" font-family="sans-serif" font-size="13" lengthAdjust="spacing" textLength="132.6978" x="287.5" y="349.3638">HTTP/AJAX Requests</text></g><!--link Backend to UI--><g class="link" data-entity-1="Backend" data-entity-2="UI" data-source-line="33" data-uid="lnk21" id="link_Backend_UI"><path d="M469.0453,568.8938 C468.5199,568.7941 467.9937,568.6938 467.4667,568.5928 C466.4125,568.3908 465.355,568.186 464.2941,567.9785 C462.1725,567.5633 460.0378,567.137 457.8911,566.6993 C453.5976,565.8238 449.2561,564.9024 444.8751,563.9327 C436.1131,561.9935 427.1929,559.8612 418.1827,557.5169 C400.1624,552.8282 381.7821,547.2913 363.587,540.7536 C327.1969,527.6781 291.5475,510.5994 261,488.2969 C224.965,461.9869 193.1525,423.2994 170.135,390.7931 C158.6263,374.54 149.3163,359.8322 142.7766,348.9895 C141.1416,346.2789 139.6799,343.8098 138.4002,341.6185 C137.7603,340.5229 140.1576,344.6977 139.6099,343.7455" fill="none" id="Backend-to-UI" style="stroke:#181818;stroke-width:1;"/><polygon fill="#181818" points="136.6183,338.5445,137.6383,348.3404,139.1113,342.8787,144.573,344.3516,136.6183,338.5445" style="stroke:#181818;stroke-width:1;"/><text fill="#000000" font-family="sans-serif" font-size="13" lengthAdjust="spacing" textLength="183.6885" x="262" y="484.3638">Processed Data / Responses</text></g><!--link Backend to DB--><g class="link" data-entity-1="Backend" data-entity-2="DB" data-source-line="30" data-uid="lnk18" id="link_Backend_DB"><path d="M612.2035,591.5203 C614.1264,592.5018 616.1968,593.5686 618.4049,594.7194 C622.8212,597.0208 627.7882,599.6578 633.2277,602.6194 C654.9853,614.4656 684.3006,631.5044 716.1513,653.0269 C779.8525,696.0719 853.695,757.0519 897.5,830.2969 C907.03,846.2269 891.94,858.6069 905.5,871.2969 C908.5088,874.1125 911.7132,876.6536 915.0778,878.9433 C916.7601,880.0881 918.4824,881.1701 920.2404,882.1921 C920.4602,882.3199 915.4678,879.4755 915.6887,879.6014" fill="none" id="Backend-to-DB" style="stroke:#181818;stroke-width:1;"/><polygon fill="#181818" points="920.9013,882.5726,915.0631,874.6407,916.5574,880.0966,911.1015,881.5909,920.9013,882.5726" style="stroke:#181818;stroke-width:1;"/><text fill="#000000" font-family="sans-serif" font-size="13" lengthAdjust="spacing" textLength="80.0566" x="786.5" y="681.3638">SQL Queries</text></g><!--link DB to Backend--><g class="link" data-entity-1="DB" data-entity-2="Backend" data-source-line="32" data-uid="lnk20" id="link_DB_Backend"><path d="M992.7523,898.301 C992.3607,898.3315 991.9677,898.3617 991.5734,898.3917 C989.9962,898.5117 988.3976,898.6277 986.7785,898.7391 C973.8261,899.6302 959.5663,900.2281 944.4875,900.2544 C884.1725,900.3594 810.755,891.3169 755.5,855.2969 C697.67,817.5969 658.0075,751.1169 632.6375,693.3194 C619.9525,664.4206 610.8406,637.6925 604.8175,617.8178 C601.8059,607.8805 599.5666,599.6565 598.0388,593.7312 C597.8479,592.9906 599.139,598.1027 598.9702,597.435" fill="none" id="DB-to-Backend" style="stroke:#181818;stroke-width:1;"/><polygon fill="#181818" points="597.4992,591.6181,595.8277,601.3241,598.725,596.4655,603.5836,599.3628,597.4992,591.6181" style="stroke:#181818;stroke-width:1;"/><text fill="#000000" font-family="sans-serif" font-size="13" lengthAdjust="spacing" textLength="91.165" x="781" y="851.3638">Query Results</text></g><!--link Backend to FS--><g class="link" data-entity-1="Backend" data-entity-2="FS" data-source-line="31" data-uid="lnk19" id="link_Backend_FS"><path d="M662.866,591.3592 C663.8735,591.4798 664.8895,591.6014 665.9139,591.7241 C674.1087,592.7049 682.8364,593.7496 691.9958,594.846 C710.3148,597.0388 730.3609,599.4384 751.3263,601.9481 C835.1875,611.9869 927.7975,623.0736 989.3525,630.4436" fill="none" id="Backend-to-FS" style="stroke:#181818;stroke-width:1;"/><polygon fill="#181818" points="995.31,631.1569,986.8493,626.1153,990.3455,630.5625,985.8983,634.0586,995.31,631.1569" style="stroke:#181818;stroke-width:1;"/><text fill="#000000" font-family="sans-serif" font-size="13" lengthAdjust="spacing" textLength="140.4292" x="756.5" y="599.3638">File Storage/Retrieval</text></g><!--SRC=[TL9DQy904BtlhnXwwCT1SXTQK8DeiQ16eL0yZ9inBesxwUveaTB_tabYh94sjvatC-_jUybfmy0ElCcs3AdnfDaugnGRpWbwwG6jfXI6HgeNj9YHXmuCtAvmbYn3R33pk5Fg3Xxb-qL2LIjzdhnP1jaTMoQ_GKqtW06MO_XI06y9eTVRI5W4bUwgQZhFncPD6NlCu1PYxmfO5hd3j45ErTIxp5C8q4TVRxXFMo43jozfHMmeSZokrBUw5DP7_KusXOdBZ8RxwMZwKAbh-dz852ujLCwtbBQxbMSdRIEqQKx_o3hvUYqhHiOrXjgfk5_Bg8CWnbHGME0wf_RHX95DOAD3WxQlLWUIOs3QLOU7oKLsrjRvdyAJU3gTfxCFNHWj5jEezznxXJbzx2bmK0rO3eh8BYIp2Spsv0srmM4YOCtEJhAaQ4uiKmVCbIosYSe3Ho49-_oAGpHr6wFbnonDWgYSb0S62Zy0]--></g></svg>