<svg xmlns="http://www.w3.org/2000/svg" xmlns:xlink="http://www.w3.org/1999/xlink" contentStyleType="text/css" data-diagram-type="MINDMAP" height="2085px" preserveAspectRatio="none" style="width:939px;height:2085px;background:#FFFFFF;" version="1.1" viewBox="0 0 939 2085" width="939px" zoomAndPan="magnify"><title>Advanced File Manager - Work Breakdown Structure</title><defs/><g><g class="title" data-source-line="1"><text fill="#000000" font-family="sans-serif" font-size="14" font-weight="bold" lengthAdjust="spacing" textLength="414.7842" x="260.7266" y="32.9951">Advanced File Manager - Work Breakdown Structure</text></g><rect fill="#F1F1F1" height="36.2969" rx="12.5" ry="12.5" style="stroke:#181818;stroke-width:1.5;" width="241.7305" x="10" y="1042.4922"/><text fill="#000000" font-family="sans-serif" font-size="14" lengthAdjust="spacing" textLength="221.7305" x="20" y="1065.4873">Project: Advanced File Manager</text><rect fill="#F1F1F1" height="36.2969" rx="12.5" ry="12.5" style="stroke:#181818;stroke-width:1.5;" width="134.5703" x="301.7305" y="113.5938"/><text fill="#000000" font-family="sans-serif" font-size="14" lengthAdjust="spacing" textLength="114.5703" x="311.7305" y="136.5889">Project Initiation</text><rect fill="#F1F1F1" height="36.2969" rx="12.5" ry="12.5" style="stroke:#181818;stroke-width:1.5;" width="164.5527" x="486.3008" y="57.2969"/><text fill="#000000" font-family="sans-serif" font-size="14" lengthAdjust="spacing" textLength="144.5527" x="496.3008" y="80.292">Define project scope</text><path d="M436.3008,131.7422 L446.3008,131.7422 C461.3008,131.7422 461.3008,75.4453 476.3008,75.4453 L486.3008,75.4453" fill="none" style="stroke:#181818;stroke-width:1;"/><rect fill="#F1F1F1" height="36.2969" rx="12.5" ry="12.5" style="stroke:#181818;stroke-width:1.5;" width="167.5059" x="486.3008" y="113.5938"/><text fill="#000000" font-family="sans-serif" font-size="14" lengthAdjust="spacing" textLength="147.5059" x="496.3008" y="136.5889">Identify stakeholders</text><path d="M436.3008,131.7422 L446.3008,131.7422 C461.3008,131.7422 461.3008,131.7422 476.3008,131.7422 L486.3008,131.7422" fill="none" style="stroke:#181818;stroke-width:1;"/><rect fill="#F1F1F1" height="36.2969" rx="12.5" ry="12.5" style="stroke:#181818;stroke-width:1.5;" width="269.0811" x="486.3008" y="169.8906"/><text fill="#000000" font-family="sans-serif" font-size="14" lengthAdjust="spacing" textLength="249.0811" x="496.3008" y="192.8857">Set project timeline and milestones</text><path d="M436.3008,131.7422 L446.3008,131.7422 C461.3008,131.7422 461.3008,188.0391 476.3008,188.0391 L486.3008,188.0391" fill="none" style="stroke:#181818;stroke-width:1;"/><path d="M251.7305,1060.6406 L261.7305,1060.6406 C276.7305,1060.6406 276.7305,131.7422 291.7305,131.7422 L301.7305,131.7422" fill="none" style="stroke:#181818;stroke-width:1;"/><rect fill="#F1F1F1" height="36.2969" rx="12.5" ry="12.5" style="stroke:#181818;stroke-width:1.5;" width="180.3984" x="301.7305" y="310.6328"/><text fill="#000000" font-family="sans-serif" font-size="14" lengthAdjust="spacing" textLength="160.3984" x="311.7305" y="333.6279">Requirements Analysis</text><rect fill="#F1F1F1" height="36.2969" rx="12.5" ry="12.5" style="stroke:#181818;stroke-width:1.5;" width="241.0127" x="532.1289" y="226.1875"/><text fill="#000000" font-family="sans-serif" font-size="14" lengthAdjust="spacing" textLength="221.0127" x="542.1289" y="249.1826">Gather functional requirements</text><path d="M482.1289,328.7813 L492.1289,328.7813 C507.1289,328.7813 507.1289,244.3359 522.1289,244.3359 L532.1289,244.3359" fill="none" style="stroke:#181818;stroke-width:1;"/><rect fill="#F1F1F1" height="36.2969" rx="12.5" ry="12.5" style="stroke:#181818;stroke-width:1.5;" width="269.915" x="532.1289" y="282.4844"/><text fill="#000000" font-family="sans-serif" font-size="14" lengthAdjust="spacing" textLength="249.915" x="542.1289" y="305.4795">Define non-functional requirements</text><path d="M482.1289,328.7813 L492.1289,328.7813 C507.1289,328.7813 507.1289,300.6328 522.1289,300.6328 L532.1289,300.6328" fill="none" style="stroke:#181818;stroke-width:1;"/><rect fill="#F1F1F1" height="36.2969" rx="12.5" ry="12.5" style="stroke:#181818;stroke-width:1.5;" width="264.9316" x="532.1289" y="338.7813"/><text fill="#000000" font-family="sans-serif" font-size="14" lengthAdjust="spacing" textLength="244.9316" x="542.1289" y="361.7764">Prepare use cases and user stories</text><path d="M482.1289,328.7813 L492.1289,328.7813 C507.1289,328.7813 507.1289,356.9297 522.1289,356.9297 L532.1289,356.9297" fill="none" style="stroke:#181818;stroke-width:1;"/><rect fill="#F1F1F1" height="36.2969" rx="12.5" ry="12.5" style="stroke:#181818;stroke-width:1.5;" width="246.9668" x="532.1289" y="395.0781"/><text fill="#000000" font-family="sans-serif" font-size="14" lengthAdjust="spacing" textLength="226.9668" x="542.1289" y="418.0732">Finalize requirements document</text><path d="M482.1289,328.7813 L492.1289,328.7813 C507.1289,328.7813 507.1289,413.2266 522.1289,413.2266 L532.1289,413.2266" fill="none" style="stroke:#181818;stroke-width:1;"/><path d="M251.7305,1060.6406 L261.7305,1060.6406 C276.7305,1060.6406 276.7305,328.7813 291.7305,328.7813 L301.7305,328.7813" fill="none" style="stroke:#181818;stroke-width:1;"/><rect fill="#F1F1F1" height="36.2969" rx="12.5" ry="12.5" style="stroke:#181818;stroke-width:1.5;" width="124.9932" x="301.7305" y="535.8203"/><text fill="#000000" font-family="sans-serif" font-size="14" lengthAdjust="spacing" textLength="104.9932" x="311.7305" y="558.8154">System Design</text><rect fill="#F1F1F1" height="36.2969" rx="12.5" ry="12.5" style="stroke:#181818;stroke-width:1.5;" width="231.1895" x="476.7236" y="451.375"/><text fill="#000000" font-family="sans-serif" font-size="14" lengthAdjust="spacing" textLength="211.1895" x="486.7236" y="474.3701">High-level architecture design</text><path d="M426.7236,553.9688 L436.7236,553.9688 C451.7236,553.9688 451.7236,469.5234 466.7236,469.5234 L476.7236,469.5234" fill="none" style="stroke:#181818;stroke-width:1;"/><rect fill="#F1F1F1" height="36.2969" rx="12.5" ry="12.5" style="stroke:#181818;stroke-width:1.5;" width="196.8389" x="476.7236" y="507.6719"/><text fill="#000000" font-family="sans-serif" font-size="14" lengthAdjust="spacing" textLength="176.8389" x="486.7236" y="530.667">Database schema design</text><path d="M426.7236,553.9688 L436.7236,553.9688 C451.7236,553.9688 451.7236,525.8203 466.7236,525.8203 L476.7236,525.8203" fill="none" style="stroke:#181818;stroke-width:1;"/><rect fill="#F1F1F1" height="36.2969" rx="12.5" ry="12.5" style="stroke:#181818;stroke-width:1.5;" width="240.1992" x="476.7236" y="563.9688"/><text fill="#000000" font-family="sans-serif" font-size="14" lengthAdjust="spacing" textLength="220.1992" x="486.7236" y="586.9639">UI/UX wireframes and mockups</text><path d="M426.7236,553.9688 L436.7236,553.9688 C451.7236,553.9688 451.7236,582.1172 466.7236,582.1172 L476.7236,582.1172" fill="none" style="stroke:#181818;stroke-width:1;"/><rect fill="#F1F1F1" height="36.2969" rx="12.5" ry="12.5" style="stroke:#181818;stroke-width:1.5;" width="250.2686" x="476.7236" y="620.2656"/><text fill="#000000" font-family="sans-serif" font-size="14" lengthAdjust="spacing" textLength="230.2686" x="486.7236" y="643.2607">Component diagram preparation</text><path d="M426.7236,553.9688 L436.7236,553.9688 C451.7236,553.9688 451.7236,638.4141 466.7236,638.4141 L476.7236,638.4141" fill="none" style="stroke:#181818;stroke-width:1;"/><path d="M251.7305,1060.6406 L261.7305,1060.6406 C276.7305,1060.6406 276.7305,553.9688 291.7305,553.9688 L301.7305,553.9688" fill="none" style="stroke:#181818;stroke-width:1;"/><rect fill="#F1F1F1" height="36.2969" rx="12.5" ry="12.5" style="stroke:#181818;stroke-width:1.5;" width="131.166" x="301.7305" y="901.75"/><text fill="#000000" font-family="sans-serif" font-size="14" lengthAdjust="spacing" textLength="111.166" x="311.7305" y="924.7451">Implementation</text><rect fill="#F1F1F1" height="36.2969" rx="12.5" ry="12.5" style="stroke:#181818;stroke-width:1.5;" width="181.8066" x="482.8965" y="761.0078"/><text fill="#000000" font-family="sans-serif" font-size="14" lengthAdjust="spacing" textLength="161.8066" x="492.8965" y="784.0029">Frontend Development</text><rect fill="#F1F1F1" height="36.2969" rx="12.5" ry="12.5" style="stroke:#181818;stroke-width:1.5;" width="127.6387" x="714.7031" y="676.5625"/><text fill="#000000" font-family="sans-serif" font-size="14" lengthAdjust="spacing" textLength="107.6387" x="724.7031" y="699.5576">Search/Filter UI</text><path d="M664.7031,779.1563 L674.7031,779.1563 C689.7031,779.1563 689.7031,694.7109 704.7031,694.7109 L714.7031,694.7109" fill="none" style="stroke:#181818;stroke-width:1;"/><rect fill="#F1F1F1" height="36.2969" rx="12.5" ry="12.5" style="stroke:#181818;stroke-width:1.5;" width="89.1729" x="714.7031" y="732.8594"/><text fill="#000000" font-family="sans-serif" font-size="14" lengthAdjust="spacing" textLength="69.1729" x="724.7031" y="755.8545">Sorting UI</text><path d="M664.7031,779.1563 L674.7031,779.1563 C689.7031,779.1563 689.7031,751.0078 704.7031,751.0078 L714.7031,751.0078" fill="none" style="stroke:#181818;stroke-width:1;"/><rect fill="#F1F1F1" height="36.2969" rx="12.5" ry="12.5" style="stroke:#181818;stroke-width:1.5;" width="180.1387" x="714.7031" y="789.1563"/><text fill="#000000" font-family="sans-serif" font-size="14" lengthAdjust="spacing" textLength="160.1387" x="724.7031" y="812.1514">Drag &amp; Drop Upload UI</text><path d="M664.7031,779.1563 L674.7031,779.1563 C689.7031,779.1563 689.7031,807.3047 704.7031,807.3047 L714.7031,807.3047" fill="none" style="stroke:#181818;stroke-width:1;"/><rect fill="#F1F1F1" height="36.2969" rx="12.5" ry="12.5" style="stroke:#181818;stroke-width:1.5;" width="162.502" x="714.7031" y="845.4531"/><text fill="#000000" font-family="sans-serif" font-size="14" lengthAdjust="spacing" textLength="142.502" x="724.7031" y="868.4482">Upload Progress Bar</text><path d="M664.7031,779.1563 L674.7031,779.1563 C689.7031,779.1563 689.7031,863.6016 704.7031,863.6016 L714.7031,863.6016" fill="none" style="stroke:#181818;stroke-width:1;"/><path d="M432.8965,919.8984 L442.8965,919.8984 C457.8965,919.8984 457.8965,779.1563 472.8965,779.1563 L482.8965,779.1563" fill="none" style="stroke:#181818;stroke-width:1;"/><rect fill="#F1F1F1" height="36.2969" rx="12.5" ry="12.5" style="stroke:#181818;stroke-width:1.5;" width="179.0586" x="482.8965" y="1014.3438"/><text fill="#000000" font-family="sans-serif" font-size="14" lengthAdjust="spacing" textLength="159.0586" x="492.8965" y="1037.3389">Backend Development</text><rect fill="#F1F1F1" height="36.2969" rx="12.5" ry="12.5" style="stroke:#181818;stroke-width:1.5;" width="213.1563" x="711.9551" y="901.75"/><text fill="#000000" font-family="sans-serif" font-size="14" lengthAdjust="spacing" textLength="193.1563" x="721.9551" y="924.7451">File search/filter logic (PHP)</text><path d="M661.9551,1032.4922 L671.9551,1032.4922 C686.9551,1032.4922 686.9551,919.8984 701.9551,919.8984 L711.9551,919.8984" fill="none" style="stroke:#181818;stroke-width:1;"/><rect fill="#F1F1F1" height="36.2969" rx="12.5" ry="12.5" style="stroke:#181818;stroke-width:1.5;" width="143.2246" x="711.9551" y="958.0469"/><text fill="#000000" font-family="sans-serif" font-size="14" lengthAdjust="spacing" textLength="123.2246" x="721.9551" y="981.042">Sorting processor</text><path d="M661.9551,1032.4922 L671.9551,1032.4922 C686.9551,1032.4922 686.9551,976.1953 701.9551,976.1953 L711.9551,976.1953" fill="none" style="stroke:#181818;stroke-width:1;"/><rect fill="#F1F1F1" height="36.2969" rx="12.5" ry="12.5" style="stroke:#181818;stroke-width:1.5;" width="154.4971" x="711.9551" y="1014.3438"/><text fill="#000000" font-family="sans-serif" font-size="14" lengthAdjust="spacing" textLength="134.4971" x="721.9551" y="1037.3389">File upload handler</text><path d="M661.9551,1032.4922 L671.9551,1032.4922 C686.9551,1032.4922 686.9551,1032.4922 701.9551,1032.4922 L711.9551,1032.4922" fill="none" style="stroke:#181818;stroke-width:1;"/><rect fill="#F1F1F1" height="36.2969" rx="12.5" ry="12.5" style="stroke:#181818;stroke-width:1.5;" width="215.2822" x="711.9551" y="1070.6406"/><text fill="#000000" font-family="sans-serif" font-size="14" lengthAdjust="spacing" textLength="195.2822" x="721.9551" y="1093.6357">Download counter manager</text><path d="M661.9551,1032.4922 L671.9551,1032.4922 C686.9551,1032.4922 686.9551,1088.7891 701.9551,1088.7891 L711.9551,1088.7891" fill="none" style="stroke:#181818;stroke-width:1;"/><rect fill="#F1F1F1" height="36.2969" rx="12.5" ry="12.5" style="stroke:#181818;stroke-width:1.5;" width="168.1553" x="711.9551" y="1126.9375"/><text fill="#000000" font-family="sans-serif" font-size="14" lengthAdjust="spacing" textLength="148.1553" x="721.9551" y="1149.9326">Database integration</text><path d="M661.9551,1032.4922 L671.9551,1032.4922 C686.9551,1032.4922 686.9551,1145.0859 701.9551,1145.0859 L711.9551,1145.0859" fill="none" style="stroke:#181818;stroke-width:1;"/><path d="M432.8965,919.8984 L442.8965,919.8984 C457.8965,919.8984 457.8965,1032.4922 472.8965,1032.4922 L482.8965,1032.4922" fill="none" style="stroke:#181818;stroke-width:1;"/><path d="M251.7305,1060.6406 L261.7305,1060.6406 C276.7305,1060.6406 276.7305,919.8984 291.7305,919.8984 L301.7305,919.8984" fill="none" style="stroke:#181818;stroke-width:1;"/><rect fill="#F1F1F1" height="36.2969" rx="12.5" ry="12.5" style="stroke:#181818;stroke-width:1.5;" width="97.1436" x="301.7305" y="1239.5313"/><text fill="#000000" font-family="sans-serif" font-size="14" lengthAdjust="spacing" textLength="77.1436" x="311.7305" y="1262.5264">Integration</text><rect fill="#F1F1F1" height="36.2969" rx="12.5" ry="12.5" style="stroke:#181818;stroke-width:1.5;" width="301.415" x="448.874" y="1183.2344"/><text fill="#000000" font-family="sans-serif" font-size="14" lengthAdjust="spacing" textLength="281.415" x="458.874" y="1206.2295">Connect frontend and backend modules</text><path d="M398.874,1257.6797 L408.874,1257.6797 C423.874,1257.6797 423.874,1201.3828 438.874,1201.3828 L448.874,1201.3828" fill="none" style="stroke:#181818;stroke-width:1;"/><rect fill="#F1F1F1" height="36.2969" rx="12.5" ry="12.5" style="stroke:#181818;stroke-width:1.5;" width="263.8857" x="448.874" y="1239.5313"/><text fill="#000000" font-family="sans-serif" font-size="14" lengthAdjust="spacing" textLength="243.8857" x="458.874" y="1262.5264">Integrate upload with progress bar</text><path d="M398.874,1257.6797 L408.874,1257.6797 C423.874,1257.6797 423.874,1257.6797 438.874,1257.6797 L448.874,1257.6797" fill="none" style="stroke:#181818;stroke-width:1;"/><rect fill="#F1F1F1" height="36.2969" rx="12.5" ry="12.5" style="stroke:#181818;stroke-width:1.5;" width="282.6436" x="448.874" y="1295.8281"/><text fill="#000000" font-family="sans-serif" font-size="14" lengthAdjust="spacing" textLength="262.6436" x="458.874" y="1318.8232">Link download counter with database</text><path d="M398.874,1257.6797 L408.874,1257.6797 C423.874,1257.6797 423.874,1313.9766 438.874,1313.9766 L448.874,1313.9766" fill="none" style="stroke:#181818;stroke-width:1;"/><path d="M251.7305,1060.6406 L261.7305,1060.6406 C276.7305,1060.6406 276.7305,1257.6797 291.7305,1257.6797 L301.7305,1257.6797" fill="none" style="stroke:#181818;stroke-width:1;"/><rect fill="#F1F1F1" height="36.2969" rx="12.5" ry="12.5" style="stroke:#181818;stroke-width:1.5;" width="112.0117" x="301.7305" y="1464.7188"/><text fill="#000000" font-family="sans-serif" font-size="14" lengthAdjust="spacing" textLength="92.0117" x="311.7305" y="1487.7139">Testing &amp; QA</text><rect fill="#F1F1F1" height="36.2969" rx="12.5" ry="12.5" style="stroke:#181818;stroke-width:1.5;" width="176.8438" x="463.7422" y="1352.125"/><text fill="#000000" font-family="sans-serif" font-size="14" lengthAdjust="spacing" textLength="156.8438" x="473.7422" y="1375.1201">Unit testing (frontend)</text><path d="M413.7422,1482.8672 L423.7422,1482.8672 C438.7422,1482.8672 438.7422,1370.2734 453.7422,1370.2734 L463.7422,1370.2734" fill="none" style="stroke:#181818;stroke-width:1;"/><rect fill="#F1F1F1" height="36.2969" rx="12.5" ry="12.5" style="stroke:#181818;stroke-width:1.5;" width="176.502" x="463.7422" y="1408.4219"/><text fill="#000000" font-family="sans-serif" font-size="14" lengthAdjust="spacing" textLength="156.502" x="473.7422" y="1431.417">Unit testing (backend)</text><path d="M413.7422,1482.8672 L423.7422,1482.8672 C438.7422,1482.8672 438.7422,1426.5703 453.7422,1426.5703 L463.7422,1426.5703" fill="none" style="stroke:#181818;stroke-width:1;"/><rect fill="#F1F1F1" height="36.2969" rx="12.5" ry="12.5" style="stroke:#181818;stroke-width:1.5;" width="150.1289" x="463.7422" y="1464.7188"/><text fill="#000000" font-family="sans-serif" font-size="14" lengthAdjust="spacing" textLength="130.1289" x="473.7422" y="1487.7139">Integration testing</text><path d="M413.7422,1482.8672 L423.7422,1482.8672 C438.7422,1482.8672 438.7422,1482.8672 453.7422,1482.8672 L463.7422,1482.8672" fill="none" style="stroke:#181818;stroke-width:1;"/><rect fill="#F1F1F1" height="36.2969" rx="12.5" ry="12.5" style="stroke:#181818;stroke-width:1.5;" width="190.0713" x="463.7422" y="1521.0156"/><text fill="#000000" font-family="sans-serif" font-size="14" lengthAdjust="spacing" textLength="170.0713" x="473.7422" y="1544.0107">User acceptance testing</text><path d="M413.7422,1482.8672 L423.7422,1482.8672 C438.7422,1482.8672 438.7422,1539.1641 453.7422,1539.1641 L463.7422,1539.1641" fill="none" style="stroke:#181818;stroke-width:1;"/><rect fill="#F1F1F1" height="36.2969" rx="12.5" ry="12.5" style="stroke:#181818;stroke-width:1.5;" width="187.6719" x="463.7422" y="1577.3125"/><text fill="#000000" font-family="sans-serif" font-size="14" lengthAdjust="spacing" textLength="167.6719" x="473.7422" y="1600.3076">Bug fixing &amp; refinement</text><path d="M413.7422,1482.8672 L423.7422,1482.8672 C438.7422,1482.8672 438.7422,1595.4609 453.7422,1595.4609 L463.7422,1595.4609" fill="none" style="stroke:#181818;stroke-width:1;"/><path d="M251.7305,1060.6406 L261.7305,1060.6406 C276.7305,1060.6406 276.7305,1482.8672 291.7305,1482.8672 L301.7305,1482.8672" fill="none" style="stroke:#181818;stroke-width:1;"/><rect fill="#F1F1F1" height="36.2969" rx="12.5" ry="12.5" style="stroke:#181818;stroke-width:1.5;" width="215.6104" x="301.7305" y="1718.0547"/><text fill="#000000" font-family="sans-serif" font-size="14" lengthAdjust="spacing" textLength="195.6104" x="311.7305" y="1741.0498">Deployment &amp; Maintenance</text><rect fill="#F1F1F1" height="36.2969" rx="12.5" ry="12.5" style="stroke:#181818;stroke-width:1.5;" width="166.1045" x="567.3408" y="1633.6094"/><text fill="#000000" font-family="sans-serif" font-size="14" lengthAdjust="spacing" textLength="146.1045" x="577.3408" y="1656.6045">Setup hosting/server</text><path d="M517.3408,1736.2031 L527.3408,1736.2031 C542.3408,1736.2031 542.3408,1651.7578 557.3408,1651.7578 L567.3408,1651.7578" fill="none" style="stroke:#181818;stroke-width:1;"/><rect fill="#F1F1F1" height="36.2969" rx="12.5" ry="12.5" style="stroke:#181818;stroke-width:1.5;" width="150.6963" x="567.3408" y="1689.9063"/><text fill="#000000" font-family="sans-serif" font-size="14" lengthAdjust="spacing" textLength="130.6963" x="577.3408" y="1712.9014">Deploy application</text><path d="M517.3408,1736.2031 L527.3408,1736.2031 C542.3408,1736.2031 542.3408,1708.0547 557.3408,1708.0547 L567.3408,1708.0547" fill="none" style="stroke:#181818;stroke-width:1;"/><rect fill="#F1F1F1" height="36.2969" rx="12.5" ry="12.5" style="stroke:#181818;stroke-width:1.5;" width="167.5742" x="567.3408" y="1746.2031"/><text fill="#000000" font-family="sans-serif" font-size="14" lengthAdjust="spacing" textLength="147.5742" x="577.3408" y="1769.1982">Monitor performance</text><path d="M517.3408,1736.2031 L527.3408,1736.2031 C542.3408,1736.2031 542.3408,1764.3516 557.3408,1764.3516 L567.3408,1764.3516" fill="none" style="stroke:#181818;stroke-width:1;"/><rect fill="#F1F1F1" height="36.2969" rx="12.5" ry="12.5" style="stroke:#181818;stroke-width:1.5;" width="186.5986" x="567.3408" y="1802.5"/><text fill="#000000" font-family="sans-serif" font-size="14" lengthAdjust="spacing" textLength="166.5986" x="577.3408" y="1825.4951">Maintenance &amp; updates</text><path d="M517.3408,1736.2031 L527.3408,1736.2031 C542.3408,1736.2031 542.3408,1820.6484 557.3408,1820.6484 L567.3408,1820.6484" fill="none" style="stroke:#181818;stroke-width:1;"/><path d="M251.7305,1060.6406 L261.7305,1060.6406 C276.7305,1060.6406 276.7305,1736.2031 291.7305,1736.2031 L301.7305,1736.2031" fill="none" style="stroke:#181818;stroke-width:1;"/><rect fill="#F1F1F1" height="36.2969" rx="12.5" ry="12.5" style="stroke:#181818;stroke-width:1.5;" width="236.2207" x="301.7305" y="1943.2422"/><text fill="#000000" font-family="sans-serif" font-size="14" lengthAdjust="spacing" textLength="216.2207" x="311.7305" y="1966.2373">Documentation &amp; Presentation</text><rect fill="#F1F1F1" height="36.2969" rx="12.5" ry="12.5" style="stroke:#181818;stroke-width:1.5;" width="195.1162" x="587.9512" y="1858.7969"/><text fill="#000000" font-family="sans-serif" font-size="14" lengthAdjust="spacing" textLength="175.1162" x="597.9512" y="1881.792">User manual preparation</text><path d="M537.9512,1961.3906 L547.9512,1961.3906 C562.9512,1961.3906 562.9512,1876.9453 577.9512,1876.9453 L587.9512,1876.9453" fill="none" style="stroke:#181818;stroke-width:1;"/><rect fill="#F1F1F1" height="36.2969" rx="12.5" ry="12.5" style="stroke:#181818;stroke-width:1.5;" width="197.1465" x="587.9512" y="1915.0938"/><text fill="#000000" font-family="sans-serif" font-size="14" lengthAdjust="spacing" textLength="177.1465" x="597.9512" y="1938.0889">Technical documentation</text><path d="M537.9512,1961.3906 L547.9512,1961.3906 C562.9512,1961.3906 562.9512,1933.2422 577.9512,1933.2422 L587.9512,1933.2422" fill="none" style="stroke:#181818;stroke-width:1;"/><rect fill="#F1F1F1" height="36.2969" rx="12.5" ry="12.5" style="stroke:#181818;stroke-width:1.5;" width="206.1426" x="587.9512" y="1971.3906"/><text fill="#000000" font-family="sans-serif" font-size="14" lengthAdjust="spacing" textLength="186.1426" x="597.9512" y="1994.3857">Project presentation slides</text><path d="M537.9512,1961.3906 L547.9512,1961.3906 C562.9512,1961.3906 562.9512,1989.5391 577.9512,1989.5391 L587.9512,1989.5391" fill="none" style="stroke:#181818;stroke-width:1;"/><rect fill="#F1F1F1" height="36.2969" rx="12.5" ry="12.5" style="stroke:#181818;stroke-width:1.5;" width="183.748" x="587.9512" y="2027.6875"/><text fill="#000000" font-family="sans-serif" font-size="14" lengthAdjust="spacing" textLength="163.748" x="597.9512" y="2050.6826">Final report submission</text><path d="M537.9512,1961.3906 L547.9512,1961.3906 C562.9512,1961.3906 562.9512,2045.8359 577.9512,2045.8359 L587.9512,2045.8359" fill="none" style="stroke:#181818;stroke-width:1;"/><path d="M251.7305,1060.6406 L261.7305,1060.6406 C276.7305,1060.6406 276.7305,1961.3906 291.7305,1961.3906 L301.7305,1961.3906" fill="none" style="stroke:#181818;stroke-width:1;"/><!--SRC=[VLHDSnev4BtFh-YJor25xJZ99iKf9hDEy9eA2IQxLo4rCmeQIQiF7FRNfwKPXY7bsWCrIDtgz_hfjJxum5nef1ODiqMGGI7SYJtJ70NSIrejc6OLEfZ0tyRjOEQGxOHvrh0ABl8G7HR569RE_40UfYyVBiPz1ior3985QJJjZg74hTG8jejwRYpcm5oW3d9x06AumzeeWSxdo0f3dnzaWoeLO5f0Gv0-68s-I8ZVyDye7JPKnyETPkhWPLlX4mirjRIDcYSYJ84Rv0vvQQCd_vUsT6YPGuWUWJEFFXEXbIFUnabiq-ubdPR_uLa148R7z2-pNHrym8PmlQnQQJxBgfuetAC2vdWj0sQvGPnIIXROXc19jneRDWojvzVhV-2PmBQEDHsnnl1Tj2sdZwQnf9KE82IhA8T4JSsqTvCepHkhCjNJTTqxemDIfJBnCZRJ7xUtaaXUqxK7QduzxtQD2r9N_Rfqh88B-XWBQwiC4tseMv9FAeVUmuov33bZVFSYOdQORs6tBQmobUHmkVoy79tZaryu5JLkS3IsW3K9ex0BbEJilCjDrAbYqpjuABUaM3LKQh1kjTKwsNDxb2k9l-aQQOo8gZF6yM3Fvbc6Eh5jDTXq6ZnAlGFnExUSApfEcSSJ-J-rUm5VxreNqBH1w7OlZtH6ByGwTgCpMjJFCQCzaepDE4SRqfIVnMQnWgtysSAxF3wzkKkaxWvfIR45I_BfLE0upz52RNAfQqBOjtftfu1PgoG_YRimHDmuiEYsnZLzdK5TGecMbEbUWh8RjBQXYpIr_ipMkI-g56d6XrCmpfhoMXE-wkVr53i-QdPG4BoIOZZt98Ob6uAFcqPwdptpWQG-lhh5KZ4Trej7eCPJ65vTtTxSlhrwVRcA6XxeT_CARcwdRzzDRz_0edo251uLbv-MZ-1DTDIma3uukOc9mQXuO7i6tyWbz3nEuOj5_L3-TTo0F_LUaXFoxJnyNvmI_dWpcP4dLlaAuFkYe5UGHHNe13U2RcSAwwVxoVlYaUagqbnC0NNnCTdH7QQWerA_0000]--></g></svg>