<svg xmlns="http://www.w3.org/2000/svg" xmlns:xlink="http://www.w3.org/1999/xlink" contentStyleType="text/css" data-diagram-type="DESCRIPTION" height="911px" preserveAspectRatio="none" style="width:458px;height:911px;background:#FFFFFF;" version="1.1" viewBox="0 0 458 911" width="458px" zoomAndPan="magnify"><defs/><g><!--cluster SYS--><g class="cluster" data-entity="SYS" data-source-line="9" data-uid="ent0003" id="cluster_SYS"><rect fill="none" height="898" rx="2.5" ry="2.5" style="stroke:#181818;stroke-width:1;" width="241" x="211.5" y="7"/><text fill="#000000" font-family="sans-serif" font-size="14" font-weight="bold" lengthAdjust="spacing" textLength="184.8301" x="239.585" y="21.9951">Advanced File Manager</text></g><!--entity UC_Browse--><g class="entity" data-entity="UC_Browse" data-source-line="10" data-uid="ent0004" id="entity_UC_Browse"><ellipse cx="332.0991" cy="424.2198" fill="#F1F1F1" rx="96.5991" ry="21.7198" style="stroke:#181818;stroke-width:0.5;"/><text fill="#000000" font-family="sans-serif" font-size="14" lengthAdjust="spacing" textLength="168.5332" x="247.8325" y="428.8683">Browse Files/Directories</text></g><!--entity UC_View--><g class="entity" data-entity="UC_View" data-source-line="11" data-uid="ent0005" id="entity_UC_View"><ellipse cx="332.1389" cy="498.1278" fill="#F1F1F1" rx="73.6389" ry="17.1278" style="stroke:#181818;stroke-width:0.5;"/><text fill="#000000" font-family="sans-serif" font-size="14" lengthAdjust="spacing" textLength="115.4111" x="274.4334" y="502.7762">View File Details</text></g><!--entity UC_Open--><g class="entity" data-entity="UC_Open" data-source-line="12" data-uid="ent0006" id="entity_UC_Open"><ellipse cx="331.8728" cy="565.0236" fill="#F1F1F1" rx="49.8728" ry="14.5236" style="stroke:#181818;stroke-width:0.5;"/><text fill="#000000" font-family="sans-serif" font-size="14" lengthAdjust="spacing" textLength="66.2881" x="298.7287" y="569.6721">Open File</text></g><!--entity UC_Create--><g class="entity" data-entity="UC_Create" data-source-line="13" data-uid="ent0007" id="entity_UC_Create"><ellipse cx="331.7729" cy="632.8546" fill="#F1F1F1" rx="77.2729" ry="17.8546" style="stroke:#181818;stroke-width:0.5;"/><text fill="#000000" font-family="sans-serif" font-size="14" lengthAdjust="spacing" textLength="124.2021" x="269.6719" y="637.503">Create File/Folder</text></g><!--entity UC_Delete--><g class="entity" data-entity="UC_Delete" data-source-line="14" data-uid="ent0008" id="entity_UC_Delete"><ellipse cx="331.9275" cy="67.7855" fill="#F1F1F1" rx="76.9275" ry="17.7855" style="stroke:#181818;stroke-width:0.5;"/><text fill="#000000" font-family="sans-serif" font-size="14" lengthAdjust="spacing" textLength="123.375" x="270.24" y="72.4339">Delete File/Folder</text></g><!--entity UC_Rename--><g class="entity" data-entity="UC_Rename" data-source-line="15" data-uid="ent0009" id="entity_UC_Rename"><ellipse cx="332.0226" cy="139.8045" fill="#F1F1F1" rx="82.0226" ry="18.8045" style="stroke:#181818;stroke-width:0.5;"/><text fill="#000000" font-family="sans-serif" font-size="14" lengthAdjust="spacing" textLength="135.4199" x="264.3126" y="144.4529">Rename File/Folder</text></g><!--entity UC_Move--><g class="entity" data-entity="UC_Move" data-source-line="16" data-uid="ent0010" id="entity_UC_Move"><ellipse cx="332.1224" cy="215.0245" fill="#F1F1F1" rx="90.6224" ry="20.5245" style="stroke:#181818;stroke-width:0.5;"/><text fill="#000000" font-family="sans-serif" font-size="14" lengthAdjust="spacing" textLength="155.1484" x="254.5482" y="219.6729">Copy/Move File/Folder</text></g><!--entity UC_Search--><g class="entity" data-entity="UC_Search" data-source-line="17" data-uid="ent0011" id="entity_UC_Search"><ellipse cx="332.2281" cy="285.2456" fill="#F1F1F1" rx="61.7281" ry="14.7456" style="stroke:#181818;stroke-width:0.5;"/><text fill="#000000" font-family="sans-serif" font-size="14" lengthAdjust="spacing" textLength="84.5947" x="289.9308" y="289.8941">Search Files</text></g><!--entity UC_Exit--><g class="entity" data-entity="UC_Exit" data-source-line="18" data-uid="ent0012" id="entity_UC_Exit"><ellipse cx="332.1189" cy="351.1238" fill="#F1F1F1" rx="71.1189" ry="16.6238" style="stroke:#181818;stroke-width:0.5;"/><text fill="#000000" font-family="sans-serif" font-size="14" lengthAdjust="spacing" textLength="109.1836" x="277.5271" y="355.7722">Exit Application</text></g><!--entity UC_Manage--><g class="entity" data-entity="UC_Manage" data-source-line="20" data-uid="ent0013" id="entity_UC_Manage"><ellipse cx="332.2129" cy="701.8426" fill="#F1F1F1" rx="67.2129" ry="15.8426" style="stroke:#181818;stroke-width:0.5;"/><text fill="#000000" font-family="sans-serif" font-size="14" lengthAdjust="spacing" textLength="99.2646" x="282.5806" y="706.491">Manage Users</text></g><!--entity UC_AccessAll--><g class="entity" data-entity="UC_AccessAll" data-source-line="21" data-uid="ent0014" id="entity_UC_AccessAll"><ellipse cx="331.917" cy="769.8834" fill="#F1F1F1" rx="69.917" ry="16.3834" style="stroke:#181818;stroke-width:0.5;"/><text fill="#000000" font-family="sans-serif" font-size="14" lengthAdjust="spacing" textLength="106.1689" x="278.8325" y="774.5318">Access All Files</text></g><!--entity UC_Maint--><g class="entity" data-entity="UC_Maint" data-source-line="22" data-uid="ent0015" id="entity_UC_Maint"><ellipse cx="331.9561" cy="841.7912" fill="#F1F1F1" rx="86.9561" ry="19.7912" style="stroke:#181818;stroke-width:0.5;"/><text fill="#000000" font-family="sans-serif" font-size="14" lengthAdjust="spacing" textLength="146.8154" x="258.5483" y="846.4396">System Maintenance</text></g><!--entity U--><g class="entity" data-entity="U" data-source-line="6" data-uid="ent0002" id="entity_U"><ellipse cx="148" cy="402" fill="#F1F1F1" rx="16" ry="16" style="stroke:#181818;stroke-width:0.5;"/><path d="M148,422 C152,422 155,422 159,418 C167,418 175,426 175,434 L175,438 C175,442 171,446 167,446 L129,446 C125,446 121,442 121,438 L121,434 C121,426 129,418 137,418 C141,422 144,422 148,422" fill="#F1F1F1" style="stroke:#181818;stroke-width:0.5;"/><text fill="#000000" font-family="sans-serif" font-size="14" lengthAdjust="spacing" textLength="31.9102" x="132.0449" y="459.4951">User</text></g><!--entity A--><g class="entity" data-entity="A" data-source-line="26" data-uid="ent0016" id="entity_A"><ellipse cx="33" cy="748" fill="#F1F1F1" rx="16" ry="16" style="stroke:#181818;stroke-width:0.5;"/><path d="M33,768 C37,768 40,768 44,764 C52,764 60,772 60,780 L60,784 C60,788 56,792 52,792 L14,792 C10,792 6,788 6,784 L6,780 C6,772 14,764 22,764 C26,768 29,768 33,768" fill="#F1F1F1" style="stroke:#181818;stroke-width:0.5;"/><text fill="#000000" font-family="sans-serif" font-size="14" lengthAdjust="spacing" textLength="44.8643" x="10.5679" y="805.4951">Admin</text></g><!--link U to SYS--><!--link SYS to A--><!--link A to U--><g class="link" data-entity-1="A" data-entity-2="U" data-source-line="33" data-uid="lnk19" id="link_A_U"><path d="M46.63,731.32 C68.37,664.75 107.0329,546.3909 128.7729,479.8109" fill="none" id="A-to-U" style="stroke:#181818;stroke-width:1;"/><polygon fill="none" points="134.36,462.7,123.0692,477.9486,134.4765,481.6733,134.36,462.7" style="stroke:#181818;stroke-width:1;"/></g><!--link U to UC_Browse--><g class="link" data-entity-1="U" data-entity-2="UC_Browse" data-source-line="36" data-uid="lnk20" id="link_U_UC_Browse"><path d="M175.85,424 C191.97,424 207.55,424 229.48,424" fill="none" id="U-to-UC_Browse" style="stroke:#181818;stroke-width:1;"/><polygon fill="#181818" points="235.48,424,226.48,420,230.48,424,226.48,428,235.48,424" style="stroke:#181818;stroke-width:1;"/></g><!--link U to UC_View--><g class="link" data-entity-1="U" data-entity-2="UC_View" data-source-line="37" data-uid="lnk21" id="link_U_UC_View"><path d="M175.58,449.7 C181.76,454.67 188.57,459.43 195.5,463 C218.83,475.01 240.7308,481.8176 265.0308,487.1776" fill="none" id="U-to-UC_View" style="stroke:#181818;stroke-width:1;"/><polygon fill="#181818" points="270.89,488.47,262.9629,482.6253,266.0074,487.393,261.2397,490.4375,270.89,488.47" style="stroke:#181818;stroke-width:1;"/></g><!--link U to UC_Open--><g class="link" data-entity-1="U" data-entity-2="UC_Open" data-source-line="38" data-uid="lnk22" id="link_U_UC_Open"><path d="M156.53,462.7 C163.02,486.01 174.76,514.48 195.5,532 C219.45,552.24 247.8777,559.7683 276.0177,562.9383" fill="none" id="U-to-UC_Open" style="stroke:#181818;stroke-width:1;"/><polygon fill="#181818" points="281.98,563.61,273.4843,558.6277,277.0114,563.0503,272.5888,566.5774,281.98,563.61" style="stroke:#181818;stroke-width:1;"/></g><!--link U to UC_Create--><g class="link" data-entity-1="U" data-entity-2="UC_Create" data-source-line="39" data-uid="lnk23" id="link_U_UC_Create"><path d="M148.79,462.82 C150.73,501.97 159.93,561.54 195.5,597 C212.05,613.5 229.3848,621.3796 251.9048,626.4196" fill="none" id="U-to-UC_Create" style="stroke:#181818;stroke-width:1;"/><polygon fill="#181818" points="257.76,627.73,249.8509,621.861,252.8807,626.638,248.1037,629.6679,257.76,627.73" style="stroke:#181818;stroke-width:1;"/></g><!--link U to UC_Delete--><g class="link" data-entity-1="U" data-entity-2="UC_Delete" data-source-line="40" data-uid="lnk24" id="link_U_UC_Delete"><path d="M149.41,385.26 C151.03,309.15 158.8,143.93 195.5,103 C210.99,85.72 227.9132,77.7274 250.4032,72.9074" fill="none" id="U-to-UC_Delete" style="stroke:#181818;stroke-width:1;"/><polygon fill="#181818" points="256.27,71.65,246.6316,69.6248,251.381,72.6978,248.3081,77.4472,256.27,71.65" style="stroke:#181818;stroke-width:1;"/></g><!--link U to UC_Rename--><g class="link" data-entity-1="U" data-entity-2="UC_Rename" data-source-line="41" data-uid="lnk25" id="link_U_UC_Rename"><path d="M151.36,385.39 C155.9,323.7 167.98,206.83 195.5,177 C210.63,160.6 226.4249,152.638 247.9749,147.318" fill="none" id="U-to-UC_Rename" style="stroke:#181818;stroke-width:1;"/><polygon fill="#181818" points="253.8,145.88,244.1036,144.1536,248.9457,147.0784,246.021,151.9205,253.8,145.88" style="stroke:#181818;stroke-width:1;"/></g><!--link U to UC_Move--><g class="link" data-entity-1="U" data-entity-2="UC_Move" data-source-line="42" data-uid="lnk26" id="link_U_UC_Move"><path d="M149.05,385.36 C151.22,346.73 160.61,288.16 195.5,253 C210.04,238.34 223.9678,230.8576 243.8478,225.2176" fill="none" id="U-to-UC_Move" style="stroke:#181818;stroke-width:1;"/><polygon fill="#181818" points="249.62,223.58,239.87,222.1882,244.8098,224.9447,242.0534,229.8845,249.62,223.58" style="stroke:#181818;stroke-width:1;"/></g><!--link U to UC_Search--><g class="link" data-entity-1="U" data-entity-2="UC_Search" data-source-line="43" data-uid="lnk27" id="link_U_UC_Search"><path d="M156.65,385.34 C163.18,362.27 174.91,334.21 195.5,317 C216.45,299.48 239.3742,292.0654 265.0742,288.2754" fill="none" id="U-to-UC_Search" style="stroke:#181818;stroke-width:1;"/><polygon fill="#181818" points="271.01,287.4,261.5227,284.7558,266.0635,288.1295,262.6899,292.6702,271.01,287.4" style="stroke:#181818;stroke-width:1;"/></g><!--link U to UC_Exit--><g class="link" data-entity-1="U" data-entity-2="UC_Exit" data-source-line="44" data-uid="lnk28" id="link_U_UC_Exit"><path d="M175.56,398.27 C181.74,393.3 188.56,388.54 195.5,385 C219.16,372.93 241.4884,366.1946 266.0284,361.0346" fill="none" id="U-to-UC_Exit" style="stroke:#181818;stroke-width:1;"/><polygon fill="#181818" points="271.9,359.8,262.2695,357.7375,267.007,360.8288,263.9157,365.5663,271.9,359.8" style="stroke:#181818;stroke-width:1;"/></g><!--link A to UC_Manage--><g class="link" data-entity-1="A" data-entity-2="UC_Manage" data-source-line="47" data-uid="lnk29" id="link_A_UC_Manage"><path d="M60.7,761.26 C77.71,755.87 100.26,749.05 120.5,744 C173.29,730.83 228.4254,720.0859 271.1354,712.3759" fill="none" id="A-to-UC_Manage" style="stroke:#181818;stroke-width:1;"/><polygon fill="#181818" points="277.04,711.31,267.4726,708.9725,272.1195,712.1982,268.8937,716.8452,277.04,711.31" style="stroke:#181818;stroke-width:1;"/></g><!--link A to UC_AccessAll--><g class="link" data-entity-1="A" data-entity-2="UC_AccessAll" data-source-line="48" data-uid="lnk30" id="link_A_UC_AccessAll"><path d="M60.62,770 C105.54,770 191.77,770 255.94,770" fill="none" id="A-to-UC_AccessAll" style="stroke:#181818;stroke-width:1;"/><polygon fill="#181818" points="261.94,770,252.94,766,256.94,770,252.94,774,261.94,770" style="stroke:#181818;stroke-width:1;"/></g><!--link A to UC_Maint--><g class="link" data-entity-1="A" data-entity-2="UC_Maint" data-source-line="49" data-uid="lnk31" id="link_A_UC_Maint"><path d="M60.62,776.45 C107.82,787.9 201.4088,810.5867 265.6488,826.1567" fill="none" id="A-to-UC_Maint" style="stroke:#181818;stroke-width:1;"/><polygon fill="#181818" points="271.48,827.57,263.6755,821.5626,266.6207,826.3922,261.791,829.3375,271.48,827.57" style="stroke:#181818;stroke-width:1;"/></g><!--SRC=[VLFBRjim4BphAnQwj3q8lXT803LkJZ42H721eYYAhRYsY5AaG39nrCU_b-GgD6q7qSKUpSpkSZLKjFFW3LYv7pm8QQdtqkZA_P9wGeiZOE-DxVoi2F10penKa6v0OGvIxs67ob5LlOEcQU0kLat622l-LsyTsHhGmVP5rytEqmW_pJD83NuW6AKGeLDqnL5GxmEgM_64kYS1jpB03MhSBwMwhntygG0U7VNeWlIJDOVm6uLkjKxdCLQIuyOtFvWl7Lya7RZmcZnA5QJBmux8b_hxYNJIPzsfFlAb_iOIUfveTMkKY9ENUkPBnveKlULWldGyaCRn3GVp9rEPQLvjpDEbYHsHAlKTeUq7tclzogcPBnsVdwM7TfgKx35cgZvpHBug3VnT8SRarHRCbuwsxyavQ9Kw7umTp0Vwv2GSkWrAxSDQGgxgipQ1gFwzPFGXtOoBCBTYb3g5getAg_Z07SxcqKDljFCsbd7mNXZGneCb7HRyWONL5fflGuWwwU_DTGnn5ODSlYkgjgdZdZHPLF9tMkP7I0E0T80GhgC0iqkRMngqOTQ_rtpJk4eYmn8WRi4TvmYzZjSYunJwZ5AaCre2c_4InuoNi6MSefJH4fICEGRvhF5KZT5glfYrpVKu1naVlt8X2Sl_3m00]--></g></svg>